<svg width="26" height="28" viewBox="0 0 26 28" fill="none" xmlns="http://www.w3.org/2000/svg">
<path fill-rule="evenodd" clip-rule="evenodd" d="M22.0789 2.01992C23.9589 2.44992 25.0989 3.87992 25.0989 5.79992L25.0889 5.80992C25.0912 6.23778 25.0951 6.6651 25.099 7.09202C25.112 8.51101 25.125 9.92547 25.0789 11.3399C24.9089 16.5999 22.7989 20.9499 18.8289 24.3999C17.4189 25.6299 15.8089 26.5699 14.0789 27.2799C13.0689 27.6999 12.0689 27.7099 11.0589 27.2799C5.67889 24.9899 2.17889 21.0299 0.588888 15.3999C0.148886 13.8199 -0.0111103 12.2099 0.00888634 10.5699V8.68992C0.00888634 8.34992 0.00666618 8.00992 0.00444603 7.66992C-1.90735e-06 6.98992 -0.00444221 6.30992 0.00888634 5.62992C0.0488873 3.86992 1.21889 2.42992 2.92888 2.03992C4.80629 1.61412 6.68786 1.19664 8.5682 0.779429C9.60243 0.549958 10.6363 0.320568 11.6689 0.0899186C12.4389 -0.0800814 13.1889 0.0299187 13.9389 0.199919C15.045 0.448889 16.1527 0.694528 17.2608 0.940235C18.8675 1.29653 20.475 1.65297 22.0789 2.01992ZM7.74319 18.1462C7.71534 18.2766 7.68793 18.405 7.65878 18.5299L7.67878 18.5499C7.68878 18.6499 7.69878 18.7299 7.71878 18.7999C7.87878 19.3199 8.43878 19.5099 8.92878 19.2199C10.1088 18.5199 11.2788 17.8199 12.4588 17.1099C12.5488 17.0499 12.5988 17.0599 12.6888 17.1099C13.0234 17.3101 13.3589 17.5111 13.695 17.7125C14.5338 18.2152 15.3763 18.7201 16.2188 19.2199C16.5288 19.4099 16.8388 19.4199 17.1288 19.2099C17.4188 18.9999 17.4988 18.6999 17.4188 18.3499C17.2638 17.6749 17.1113 17.0023 16.9588 16.3298C16.8063 15.6573 16.6538 14.9849 16.4988 14.3099C16.4788 14.2199 16.4888 14.1699 16.5588 14.1099C16.8288 13.8799 17.0788 13.6599 17.3388 13.4299C18.1188 12.7299 18.9088 12.0399 19.6988 11.3499C19.9488 11.1199 20.0488 10.8399 19.9388 10.5099C19.8288 10.1799 19.5888 9.98988 19.2388 9.95988C18.8088 9.91988 18.3688 9.87988 17.9288 9.83988C17.0088 9.74988 16.0888 9.66988 15.1688 9.58988C15.0288 9.57988 14.9588 9.53988 14.8988 9.39988L14.7588 9.06971C14.2769 7.93292 13.8012 6.81055 13.3088 5.67988C13.2488 5.53988 13.1688 5.40988 13.0588 5.30988C12.6488 4.94988 12.0388 5.10988 11.8188 5.62988C11.5488 6.26489 11.2788 6.89741 11.0088 7.52992C10.7388 8.16241 10.4688 8.79489 10.1988 9.42988L10.1938 9.43989C10.1561 9.51563 10.1242 9.57988 10.0188 9.57988C8.69878 9.69988 7.36878 9.81988 6.03878 9.93988C6.01148 9.94378 5.98418 9.9473 5.95696 9.95081C5.84456 9.9653 5.73343 9.97963 5.62878 10.0199C5.07879 10.2399 4.96878 10.9499 5.43878 11.3599C5.95878 11.8149 6.47629 12.2674 6.99378 12.7199C7.51127 13.1724 8.02878 13.6249 8.54878 14.0799C8.61878 14.1499 8.63878 14.2099 8.61878 14.3099C8.45251 15.0133 8.29442 15.7127 8.13666 16.4106C8.04773 16.804 7.95891 17.1969 7.86878 17.5899C7.82209 17.7766 7.78222 17.9634 7.74319 18.1462Z" fill="url(#paint0_linear_47_455)"/>
<defs>
<linearGradient id="paint0_linear_47_455" x1="0.00888889" y1="13.7899" x2="25.1189" y2="13.7899" gradientUnits="userSpaceOnUse">
<stop offset="0.01" stop-color="#33A1FD"/>
<stop offset="0.92" stop-color="#2276FF"/>
</linearGradient>
</defs>
</svg>
