<svg width="34" height="32" viewBox="0 0 34 32" fill="none" xmlns="http://www.w3.org/2000/svg">
<g clip-path="url(#clip0_22_54)">
<path d="M16.9982 14.1229C12.0126 14.1229 7.02523 14.1229 2.03963 14.1229C1.01803 14.1229 0.29972 14.6442 0.0602829 15.5423C-0.202211 16.5321 0.422098 17.5835 1.42418 17.8107C1.66539 17.8653 1.92079 17.8794 2.17087 17.8794C12.0552 17.8829 21.9377 17.8829 31.822 17.8776C32.1271 17.8776 32.4463 17.8477 32.7354 17.7561C33.5814 17.4849 34.1011 16.6237 33.984 15.759C33.8634 14.8696 33.1238 14.181 32.2228 14.1264C32.0614 14.1158 31.8983 14.1211 31.7369 14.1211C26.824 14.1211 21.9129 14.1211 17 14.1211L16.9982 14.1229Z" fill="white"/>
<path d="M9.28484 -1.42133e-05C8.31468 0.0581036 7.32501 0.0105528 6.38145 0.195473C3.76716 0.709727 1.9439 2.95166 1.88537 5.61804C1.85876 6.86317 1.86763 8.1083 1.88359 9.35343C1.89601 10.4894 2.70655 11.3118 3.77958 11.3101C4.86857 11.3101 5.66137 10.47 5.66669 9.30411C5.67024 8.13295 5.66314 6.96003 5.66846 5.78887C5.67379 4.60714 6.44176 3.83047 7.6283 3.81815C8.85208 3.80582 10.0776 3.82695 11.3014 3.80934C12.1847 3.79701 12.8551 3.30389 13.1194 2.52547C13.3677 1.79635 13.1708 0.956288 12.5341 0.51248C12.1918 0.272964 11.7324 0.200756 11.3245 0.0545808C11.2979 0.0457751 11.266 0.0545808 11.2358 0.0545808C10.5867 0.0545808 9.93753 0.0545808 9.28839 0.0545808L9.28484 -1.42133e-05Z" fill="white"/>
<path d="M1.83039 24.5682C1.88182 25.5034 1.83571 26.4544 2.0042 27.3684C2.50436 30.0436 4.75683 31.891 7.5006 31.9491C8.75454 31.9756 10.0085 31.9668 11.2606 31.9491C12.4082 31.9351 13.2169 31.132 13.2081 30.0524C13.201 28.9799 12.3727 28.1979 11.2252 28.1926C10.0457 28.1873 8.8645 28.1944 7.68506 28.1909C6.4524 28.1873 5.66847 27.4107 5.66315 26.1867C5.6596 25.0155 5.66669 23.8426 5.66137 22.6714C5.65605 21.5302 4.87212 20.7078 3.79199 20.699C2.70655 20.6902 1.9031 21.4932 1.87827 22.6309C1.86409 23.2755 1.8765 23.9201 1.8765 24.5647H1.82861L1.83039 24.5682Z" fill="white"/>
<path d="M24.7047 0.0530434C24.0413 0.0530434 23.378 0.04776 22.7129 0.0530434C21.6044 0.0653715 20.7868 0.861407 20.7832 1.91986C20.7797 2.98006 21.576 3.78491 22.6952 3.8078C23.7274 3.82894 24.7632 3.86944 25.7919 3.80076C27.6719 3.67748 28.4487 4.69542 28.3405 6.31567C28.2731 7.33714 28.321 8.36564 28.3299 9.39063C28.3388 10.4473 29.1121 11.2645 30.1266 11.3068C31.1712 11.3508 32.0651 10.5988 32.0935 9.52624C32.1325 8.03455 32.1627 6.53406 32.0438 5.04765C31.8239 2.2985 29.3887 0.114682 26.606 0.0565638C25.9728 0.0442358 25.3378 0.0548036 24.7029 0.0548036L24.7047 0.0530434Z" fill="white"/>
<path d="M24.6638 32C25.6056 31.9507 26.5634 31.9982 27.4839 31.8309C30.1798 31.3431 32.0403 29.1188 32.1094 26.3837C32.1414 25.1386 32.1289 23.8935 32.113 22.6483C32.0988 21.4842 31.2794 20.6776 30.1727 20.6987C29.0996 20.7199 28.3352 21.5458 28.3317 22.6976C28.3281 23.8547 28.3334 25.0118 28.3317 26.1688C28.3281 27.4175 27.5477 28.1871 26.2831 28.1906C25.1179 28.1942 23.9526 28.1889 22.7874 28.1906C21.6327 28.1942 20.8027 28.9638 20.7885 30.0328C20.7743 31.1335 21.5884 31.9296 22.7625 31.9489C23.3957 31.9595 24.0307 31.9507 24.6656 31.9507V31.9965L24.6638 32Z" fill="white"/>
</g>
<defs>
<clipPath id="clip0_22_54">
<rect width="34" height="32" fill="white" transform="matrix(1 0 0 -1 0 32)"/>
</clipPath>
</defs>
</svg>
