<svg width="28" height="28" viewBox="0 0 28 28" fill="none" xmlns="http://www.w3.org/2000/svg">
<g clip-path="url(#clip0_49_482)">
<path d="M13.62 3C19.47 3 24.24 7.76 24.24 13.62C24.24 19.48 19.48 24.24 13.62 24.24C7.76 24.24 3 19.47 3 13.62C3 7.77 7.76 3 13.62 3ZM13.62 0C6.1 0 0 6.1 0 13.62C0 21.14 6.1 27.24 13.62 27.24C21.14 27.24 27.24 21.14 27.24 13.62C27.24 6.1 21.14 0 13.62 0Z" fill="#FF4D4F"/>
<path d="M17.3901 17.3898L9.84009 9.83984" stroke="#FF4D4F" stroke-width="3" stroke-linecap="round" stroke-linejoin="round"/>
<path d="M9.84009 17.3898L17.3901 9.83984" stroke="#FF4D4F" stroke-width="3" stroke-linecap="round" stroke-linejoin="round"/>
</g>
<defs>
<clipPath id="clip0_49_482">
<rect width="27.23" height="27.23" fill="white"/>
</clipPath>
</defs>
</svg>
