<svg width="28" height="28" viewBox="0 0 28 28" fill="none" xmlns="http://www.w3.org/2000/svg">
<mask id="mask0_47_451" style="mask-type:luminance" maskUnits="userSpaceOnUse" x="0" y="0" width="28" height="28">
<path d="M13.62 0.00976562C6.1 0.00976562 0 6.10977 0 13.6298C0 21.1498 6.1 27.2498 13.62 27.2498C21.14 27.2498 27.24 21.1498 27.24 13.6298C27.24 6.10977 21.14 0.00976562 13.62 0.00976562ZM13.62 24.2398C7.77 24.2398 3 19.4798 3 13.6198C3 7.75977 7.77 3.00977 13.62 3.00977C19.47 3.00977 24.24 7.76977 24.24 13.6298C24.24 19.4898 19.48 24.2498 13.62 24.2498V24.2398Z" fill="white"/>
</mask>
<g mask="url(#mask0_47_451)">
<path d="M13.36 28.26C21.4399 28.26 27.99 21.7099 27.99 13.63C27.99 5.55007 21.4399 -1 13.36 -1C5.28006 -1 -1.27002 5.55007 -1.27002 13.63C-1.27002 21.7099 5.28006 28.26 13.36 28.26Z" fill="url(#paint0_linear_47_451)"/>
</g>
<mask id="mask1_47_451" style="mask-type:luminance" maskUnits="userSpaceOnUse" x="6" y="9" width="16" height="11">
<path d="M18.46 9.46024L11.91 16.0102L8.78996 12.8902C8.19996 12.3002 7.24996 12.3002 6.66996 12.8902C6.08996 13.4802 6.07996 14.4302 6.66996 15.0102L10.85 19.1902C11.14 19.4802 11.53 19.6302 11.91 19.6302C12.29 19.6302 12.68 19.4802 12.97 19.1902L20.58 11.5802C21.17 10.9902 21.17 10.0402 20.58 9.46024C19.99 8.88024 19.04 8.87024 18.46 9.46024Z" fill="white"/>
</mask>
<g mask="url(#mask1_47_451)">
<path d="M13.36 28.26C21.4399 28.26 27.99 21.7099 27.99 13.63C27.99 5.55007 21.4399 -1 13.36 -1C5.28006 -1 -1.27002 5.55007 -1.27002 13.63C-1.27002 21.7099 5.28006 28.26 13.36 28.26Z" fill="url(#paint1_linear_47_451)"/>
</g>
<defs>
<linearGradient id="paint0_linear_47_451" x1="-1.27002" y1="13.63" x2="27.98" y2="13.63" gradientUnits="userSpaceOnUse">
<stop offset="0.01" stop-color="#33A1FD"/>
<stop offset="0.92" stop-color="#2276FF"/>
</linearGradient>
<linearGradient id="paint1_linear_47_451" x1="-1.27002" y1="13.63" x2="27.98" y2="13.63" gradientUnits="userSpaceOnUse">
<stop offset="0.01" stop-color="#33A1FD"/>
<stop offset="0.92" stop-color="#2276FF"/>
</linearGradient>
</defs>
</svg>
