<svg width="28" height="28" viewBox="0 0 28 28" fill="none" xmlns="http://www.w3.org/2000/svg">
<path fill-rule="evenodd" clip-rule="evenodd" d="M27.5701 13.9701C27.5701 21.4922 21.4722 27.5901 13.9501 27.5901C6.42796 27.5901 0.330078 21.4922 0.330078 13.9701C0.330078 6.44798 6.42796 0.350098 13.9501 0.350098C21.4722 0.350098 27.5701 6.44798 27.5701 13.9701ZM20.9107 11.9308C21.4965 11.345 21.4965 10.3952 20.9107 9.80946C20.3249 9.22367 19.3752 9.22367 18.7894 9.80946L12.2401 16.3588L9.12072 13.2395C8.53493 12.6537 7.58519 12.6537 6.9994 13.2395C6.41361 13.8252 6.41361 14.775 6.9994 15.3608L11.1794 19.5408C11.4607 19.8221 11.8422 19.9801 12.2401 19.9801C12.6379 19.9801 13.0194 19.8221 13.3007 19.5408L20.9107 11.9308Z" fill="url(#paint0_linear_47_454)"/>
<defs>
<linearGradient id="paint0_linear_47_454" x1="0.340078" y1="13.9701" x2="27.5701" y2="13.9701" gradientUnits="userSpaceOnUse">
<stop offset="0.01" stop-color="#33A1FD"/>
<stop offset="0.92" stop-color="#2276FF"/>
</linearGradient>
</defs>
</svg>
